HIERARCHY
ROOT hips_dup
{
	OFFSET 38.994835 108.019676 230.402130
	CHANNELS 6 Xposition Yposition Zposition Zrotation Yrotation Xrotation
	JOINT l_hip_dup
	{
		OFFSET 0.100000 0.000000 0.000000
		CHANNELS 3 Zrotation Yrotation Xrotation
		JOINT l_thigh_dup
		{
			OFFSET 7.071068 -7.071068 0.000000
			CHANNELS 3 Zrotation Yrotation Xrotation
			JOINT l_knee_dup
			{
				OFFSET 0.000020 -50.000011 0.000000
				CHANNELS 3 Zrotation Yrotation Xrotation
				JOINT l_foot_dup
				{
					OFFSET 0.000022 -46.844974 0.000000
					CHANNELS 3 Zrotation Yrotation Xrotation
					JOINT l_toes_dup
					{
						OFFSET 0.000004 -3.481765 12.994138
						CHANNELS 3 Zrotation Yrotation Xrotation
						End l_toes_End_dup
						{
							OFFSET 0.000000 0.000003 9.999998
						}
					}
				}
			}
		}
	}
	JOINT r_hip_dup
	{
		OFFSET 0.100000 0.000000 0.000000
		CHANNELS 3 Zrotation Yrotation Xrotation
		JOINT r_thigh_dup
		{
			OFFSET -7.071067 -7.071068 0.000000
			CHANNELS 3 Zrotation Yrotation Xrotation
			JOINT r_knee_dup
			{
				OFFSET 0.000026 -50.000000 -0.000000
				CHANNELS 3 Zrotation Yrotation Xrotation
				JOINT r_foot_dup
				{
					OFFSET 0.000021 -46.844951 0.000000
					CHANNELS 3 Zrotation Yrotation Xrotation
					JOINT r_toes_dup
					{
						OFFSET 0.000006 -3.481758 12.994106
						CHANNELS 3 Zrotation Yrotation Xrotation
						End r_toes_End_dup
						{
							OFFSET 0.000000 -0.000003 9.999996
						}
					}
				}
			}
		}
	}
	JOINT spine1_dup
	{
		OFFSET 0.000000 0.099998 0.000000
		CHANNELS 3 Zrotation Yrotation Xrotation
		JOINT spine2_dup
		{
			OFFSET 0.000001 10.421844 0.000000
			CHANNELS 3 Zrotation Yrotation Xrotation
			JOINT spine3_dup
			{
				OFFSET 0.000001 10.421852 0.000000
				CHANNELS 3 Zrotation Yrotation Xrotation
				JOINT spine4_dup
				{
					OFFSET 0.000001 10.421829 -0.000000
					CHANNELS 3 Zrotation Yrotation Xrotation
					JOINT neck1_dup
					{
						OFFSET 0.000001 10.421814 0.000000
						CHANNELS 3 Zrotation Yrotation Xrotation
						JOINT neck2_dup
						{
							OFFSET 0.000000 5.749954 -0.000000
							CHANNELS 3 Zrotation Yrotation Xrotation
							JOINT head_dup
							{
								OFFSET 0.000000 5.749924 0.000000
								CHANNELS 3 Zrotation Yrotation Xrotation
								End head_End_dup
								{
									OFFSET 0.000000 11.499686 -0.000000
								}
							}
						}
					}
					JOINT l_clavicle_dup
					{
						OFFSET 0.000000 10.421844 0.000000
						CHANNELS 3 Zrotation Yrotation Xrotation
						JOINT l_shoulder_dup
						{
							OFFSET 17.847798 3.850716 -0.981963
							CHANNELS 3 Zrotation Yrotation Xrotation
							JOINT l_elbow_dup
							{
								OFFSET 30.849020 0.000016 -0.000001
								CHANNELS 3 Zrotation Yrotation Xrotation
								JOINT l_hand_dup
								{
									OFFSET 30.320339 0.000015 -0.000002
									CHANNELS 3 Zrotation Yrotation Xrotation
									End l_hand_End_dup
									{
										OFFSET 14.999237 0.000010 0.000000
									}
								}
							}
						}
					}
					JOINT r_clavicle_dup
					{
						OFFSET 0.000000 10.421844 0.000000
						CHANNELS 3 Zrotation Yrotation Xrotation
						JOINT r_shoulder_dup
						{
							OFFSET -18.112579 2.260853 -1.076626
							CHANNELS 3 Zrotation Yrotation Xrotation
							JOINT r_elbow_dup
							{
								OFFSET -30.849059 0.000005 0.000001
								CHANNELS 3 Zrotation Yrotation Xrotation
								JOINT r_hand_dup
								{
									OFFSET -30.627892 0.000005 0.000004
									CHANNELS 3 Zrotation Yrotation Xrotation
									End r_hand_End_dup
									{
										OFFSET -14.999262 0.000003 0.000000
									}
								}
							}
						}
					}
				}
			}
		}
	}
}
MOTION
Frames: 15
Frame Time: 0.033333
0.0000 0.0000 0.0000 0.0000 0.0000 0.0000 0.0000 0.0000 0.0000 -1.10563e-32 1.98785e-16 -6.37353e-15 -7.95139e-16 -1.98785e-16 6.37353e-15 1.59028e-15 9.93923e-16 2.06902e-32 0.0000 0.0000 0.0000 0.0000 0.0000 0.0000 -1.59028e-15 1.59028e-15 6.55989e-15 1.59028e-15 -3.18055e-15 -6.5102e-15 1.97936e-31 1.98785e-15 6.31141e-15 0.0000 0.0000 0.0000 0.0000 0.0000 0.0000 0.0000 0.0000 0.0000 0.0000 0.0000 0.0000 0.0000 0.0000 0.0000 0.0000 0.0000 0.0000 0.0000 0.0000 0.0000 0.0000 0.0000 0.0000 0.0000 0.0000 0.0000 -1.17244e-32 -1.68967e-15 7.95139e-16 1.59028e-15 2.98177e-16 -7.95139e-16 -1.59028e-15 6.55989e-15 3.18055e-15 0.0000 0.0000 0.0000 3.97569e-16 7.95139e-16 3.97569e-16 1.19271e-15 4.17448e-15 -3.97569e-16 -7.95139e-16 -9.93923e-17 -3.24146e-32 
0.0000 0.0000 0.0000 0.0000 0.0000 0.0000 0.0000 0.0000 0.0000 -0.00864812 0.0278406 0.00417453 0.0134914 -0.00466211 0.00799586 -0.00207381 -0.0284152 -0.011009 0.0000 0.0000 0.0000 0.0000 0.0000 0.0000 -0.00560216 0.0170156 0.00772611 0.00474472 0.0182277 0.00958557 0.000898704 -0.0298624 -0.0210278 0.0000 0.0000 0.0000 0.0000 0.0000 0.0000 0.0000 0.0000 0.0000 0.0000 0.0000 0.0000 0.0000 0.0000 0.0000 0.0000 0.0000 0.0000 0.0000 0.0000 0.0000 0.0000 0.0000 0.0000 0.0000 0.0000 0.0000 -0.0133481 -0.0127124 -0.00572346 0.01784 -0.00687513 -0.0178692 -0.0208337 0.0130564 -0.01653 0.0000 0.0000 0.0000 0.0327309 -0.0247534 -0.0817844 0.0131383 0.031446 0.0367868 -0.000270477 -0.0495963 0.0420556 
0.0000 0.0000 0.0000 0.0000 0.0000 0.0000 0.0000 0.0000 0.0000 -0.0110711 0.0303694 0.00622233 0.0204088 0.00854232 0.0182375 -0.00635235 -0.0544356 -0.0256633 0.0000 0.0000 0.0000 0.0000 0.0000 0.0000 -0.0100431 0.0518802 0.00907934 0.0102286 0.00279536 0.0281493 -8.77067e-05 -0.0480448 -0.0421286 0.0000 0.0000 0.0000 0.0000 0.0000 0.0000 0.0000 0.0000 0.0000 0.0000 0.0000 0.0000 0.0000 0.0000 0.0000 0.0000 0.0000 0.0000 0.0000 0.0000 0.0000 0.0000 0.0000 0.0000 0.0000 0.0000 0.0000 -0.0533781 -0.0176062 -0.00538798 0.0497679 -0.0356046 -0.0447557 -0.0256228 -0.00374396 -0.0438643 0.0000 0.0000 0.0000 0.0793363 -0.0498641 -0.111813 0.0151659 0.0677239 0.0230669 0.00213325 -0.0734879 0.0735697 
0.0000 0.0000 0.0000 0.0000 0.0000 0.0000 0.0000 0.0000 0.0000 -0.0102184 0.0436539 0.0105936 0.0270854 0.0177124 0.0280349 -0.0143872 -0.0812883 -0.0389937 0.0000 0.0000 0.0000 0.0000 0.0000 0.0000 -0.0133294 0.0874475 0.00947704 0.0146952 -0.0214767 0.0477726 -0.00275436 -0.0581958 -0.0635051 0.0000 0.0000 0.0000 0.0000 0.0000 0.0000 0.0000 0.0000 0.0000 0.0000 0.0000 0.0000 0.0000 0.0000 0.0000 0.0000 0.0000 0.0000 0.0000 0.0000 0.0000 0.0000 0.0000 0.0000 0.0000 0.0000 0.0000 -0.0925426 -0.0224769 -0.0131554 0.0504713 -0.0736212 -0.0670828 -0.0448807 -0.0470807 -0.0856826 0.0000 0.0000 0.0000 0.127409 -0.0703111 -0.0999268 0.0266093 0.0850765 0.0164187 0.0140105 -0.0590011 0.0432117 
0.0000 0.0000 0.0000 0.0000 0.0000 0.0000 0.0000 0.0000 0.0000 -0.00541758 0.0525581 0.0154725 0.0315713 0.0224206 0.030551 -0.0253774 -0.102502 -0.0475285 0.0000 0.0000 0.0000 0.0000 0.0000 0.0000 -0.0126549 0.081134 0.016875 0.015711 0.00315982 0.0606751 -0.00556098 -0.0746392 -0.0862564 0.0000 0.0000 0.0000 0.0000 0.0000 0.0000 0.0000 0.0000 0.0000 0.0000 0.0000 0.0000 0.0000 0.0000 0.0000 0.0000 0.0000 0.0000 0.0000 0.0000 0.0000 0.0000 0.0000 0.0000 0.0000 0.0000 0.0000 -0.124452 -0.0366961 -0.024251 0.0347287 -0.0961384 -0.0858771 -0.0843386 -0.0933276 -0.128349 0.0000 0.0000 0.0000 0.179458 -0.0878495 -0.0844339 0.0330272 0.092955 0.0380161 0.0362849 -0.0652715 0.0237195 
0.0000 0.0000 0.0000 0.0000 0.0000 0.0000 0.0000 0.0000 0.0000 0.00079932 0.064421 0.0333964 0.0374946 0.0290254 0.0213766 -0.0367425 -0.127846 -0.0573587 0.0000 0.0000 0.0000 0.0000 0.0000 0.0000 -0.00561996 0.0575296 0.012376 0.0134713 0.0270174 0.0819906 -0.0117972 -0.073745 -0.104416 0.0000 0.0000 0.0000 0.0000 0.0000 0.0000 0.0000 0.0000 0.0000 0.0000 0.0000 0.0000 0.0000 0.0000 0.0000 0.0000 0.0000 0.0000 0.0000 0.0000 0.0000 0.0000 0.0000 0.0000 0.0000 0.0000 0.0000 -0.162925 -0.0530028 -0.0221901 0.0397227 -0.108981 -0.107473 -0.102082 -0.107787 -0.157767 0.0000 0.0000 0.0000 0.223938 -0.106831 -0.0864252 0.0418211 0.104589 0.0527901 0.068779 -0.0911943 0.0684831 
0.0000 0.0000 0.0000 0.0000 0.0000 0.0000 0.0000 0.0000 0.0000 0.00822652 0.0738387 0.0651757 0.0435382 0.0201644 -0.00196769 -0.0522776 -0.138649 -0.0668678 0.0000 0.0000 0.0000 0.0000 0.0000 0.0000 0.00278971 0.0203213 0.0142144 0.00861104 0.0551454 0.0963804 -0.0150647 -0.0600707 -0.121075 0.0000 0.0000 0.0000 0.0000 0.0000 0.0000 0.0000 0.0000 0.0000 0.0000 0.0000 0.0000 0.0000 0.0000 0.0000 0.0000 0.0000 0.0000 0.0000 0.0000 0.0000 0.0000 0.0000 0.0000 0.0000 0.0000 0.0000 -0.177097 -0.0667751 -0.0152408 0.0404511 -0.115944 -0.126032 -0.0848353 -0.0987378 -0.151258 0.0000 0.0000 0.0000 0.262776 -0.130737 -0.102669 0.054677 0.121159 0.0611812 0.0980039 -0.108977 0.119903 
0.0000 0.0000 0.0000 0.0000 0.0000 0.0000 0.0000 0.0000 0.0000 0.0162307 0.0887104 0.0767786 0.0476631 0.00347134 -0.00602078 -0.0673201 -0.146011 -0.0772247 0.0000 0.0000 0.0000 0.0000 0.0000 0.0000 0.00978128 -0.00648293 0.0217513 0.00908645 0.067914 0.100899 -0.0228777 -0.0455665 -0.133295 0.0000 0.0000 0.0000 0.0000 0.0000 0.0000 0.0000 0.0000 0.0000 0.0000 0.0000 0.0000 0.0000 0.0000 0.0000 0.0000 0.0000 0.0000 0.0000 0.0000 0.0000 0.0000 0.0000 0.0000 0.0000 0.0000 0.0000 -0.173506 -0.0706053 -0.00571349 0.0540682 -0.127237 -0.12565 -0.065729 -0.105362 -0.139701 0.0000 0.0000 0.0000 0.298923 -0.15448 -0.109687 0.0624302 0.142484 0.0735627 0.109647 -0.125201 0.132646 
0.0000 0.0000 0.0000 0.0000 0.0000 0.0000 0.0000 0.0000 0.0000 0.0277563 0.063396 0.0902657 0.0497551 0.015063 -0.00939734 -0.0818507 -0.142545 -0.0918822 0.0000 0.0000 0.0000 0.0000 0.0000 0.0000 0.018792 -0.0123348 0.0280423 0.00356156 0.0549985 0.109121 -0.0257522 -0.026152 -0.149882 0.0000 0.0000 0.0000 0.0000 0.0000 0.0000 0.0000 0.0000 0.0000 0.0000 0.0000 0.0000 0.0000 0.0000 0.0000 0.0000 0.0000 0.0000 0.0000 0.0000 0.0000 0.0000 0.0000 0.0000 0.0000 0.0000 0.0000 -0.179801 -0.0814264 0.00507974 0.0876219 -0.125387 -0.105107 -0.0753415 -0.130387 -0.14 0.0000 0.0000 0.0000 0.331887 -0.167698 -0.101785 0.0673455 0.153367 0.0767654 0.115628 -0.129194 0.124301 
0.0000 0.0000 0.0000 0.0000 0.0000 0.0000 0.0000 0.0000 0.0000 0.0337657 0.0379863 0.105306 0.0538387 0.041268 -0.0213409 -0.0936736 -0.152228 -0.0953604 0.0000 0.0000 0.0000 0.0000 0.0000 0.0000 0.0238727 -0.00373297 0.0348953 0.00517637 0.0306726 0.111933 -0.0308311 -0.00842705 -0.161758 0.0000 0.0000 0.0000 0.0000 0.0000 0.0000 0.0000 0.0000 0.0000 0.0000 0.0000 0.0000 0.0000 0.0000 0.0000 0.0000 0.0000 0.0000 0.0000 0.0000 0.0000 0.0000 0.0000 0.0000 0.0000 0.0000 0.0000 -0.183211 -0.101216 0.0174686 0.0564516 -0.124816 -0.110065 -0.0774028 -0.126622 -0.104046 0.0000 0.0000 0.0000 0.365408 -0.177596 -0.0941136 0.0677663 0.161929 0.08107 0.116165 -0.136412 0.119062 
0.0000 0.0000 0.0000 0.0000 0.0000 0.0000 0.0000 0.0000 0.0000 0.041526 0.0246871 0.121226 0.0556878 0.0667819 -0.0298283 -0.106262 -0.174403 -0.105139 0.0000 0.0000 0.0000 0.0000 0.0000 0.0000 0.0278574 -0.00684144 0.0479868 0.0067825 0.0306844 0.106792 -0.035546 -0.00450089 -0.168169 0.0000 0.0000 0.0000 0.0000 0.0000 0.0000 0.0000 0.0000 0.0000 0.0000 0.0000 0.0000 0.0000 0.0000 0.0000 0.0000 0.0000 0.0000 0.0000 0.0000 0.0000 0.0000 0.0000 0.0000 0.0000 0.0000 0.0000 -0.206922 -0.115494 0.0377401 0.0345649 -0.123975 -0.118127 -0.0753736 -0.139564 -0.0916953 0.0000 0.0000 0.0000 0.399904 -0.186138 -0.0667647 0.0635423 0.164824 0.0664525 0.111807 -0.135715 0.112564 
0.0000 0.0000 0.0000 0.0000 0.0000 0.0000 0.0000 0.0000 0.0000 0.0457892 0.0308767 0.141444 0.0566382 0.0648655 -0.0454394 -0.109348 -0.183772 -0.110724 0.0000 0.0000 0.0000 0.0000 0.0000 0.0000 0.0266466 -0.0223456 0.0637595 0.0108561 0.050794 0.096905 -0.0383148 -0.0102925 -0.175527 0.0000 0.0000 0.0000 0.0000 0.0000 0.0000 0.0000 0.0000 0.0000 0.0000 0.0000 0.0000 0.0000 0.0000 0.0000 0.0000 0.0000 0.0000 0.0000 0.0000 0.0000 0.0000 0.0000 0.0000 0.0000 0.0000 0.0000 -0.238257 -0.13396 0.0443778 0.0176794 -0.11132 -0.105468 -0.101062 -0.143323 -0.0952654 0.0000 0.0000 0.0000 0.42577 -0.197212 -0.0671674 0.0671317 0.169427 0.0690967 0.116265 -0.144468 0.103037 
0.0000 0.0000 0.0000 0.0000 0.0000 0.0000 0.0000 0.0000 0.0000 0.0522559 0.0551806 0.160936 0.0557276 0.0412556 -0.0564917 -0.113681 -0.189699 -0.119454 0.0000 0.0000 0.0000 0.0000 0.0000 0.0000 0.0249276 -0.0398934 0.0720848 0.0162258 0.0707105 0.0949536 -0.0400068 -0.0117871 -0.18237 0.0000 0.0000 0.0000 0.0000 0.0000 0.0000 0.0000 0.0000 0.0000 0.0000 0.0000 0.0000 0.0000 0.0000 0.0000 0.0000 0.0000 0.0000 0.0000 0.0000 0.0000 0.0000 0.0000 0.0000 0.0000 0.0000 0.0000 -0.264915 -0.147772 0.0732499 -0.00545855 -0.106536 -0.118163 -0.107546 -0.132368 -0.0884635 0.0000 0.0000 0.0000 0.440341 -0.215 -0.0871117 0.0778573 0.187746 0.0659086 0.126278 -0.164217 0.127477 
0.0000 0.0000 0.0000 0.0000 0.0000 0.0000 0.0000 0.0000 0.0000 0.0580636 0.0636669 0.166264 0.0541436 0.0345238 -0.0567418 -0.117532 -0.194734 -0.125243 0.0000 0.0000 0.0000 0.0000 0.0000 0.0000 0.0197352 -0.0516591 0.0983246 0.0243301 0.0831577 0.0763594 -0.0419803 -0.0119845 -0.190014 0.0000 0.0000 0.0000 0.0000 0.0000 0.0000 0.0000 0.0000 0.0000 0.0000 0.0000 0.0000 0.0000 0.0000 0.0000 0.0000 0.0000 0.0000 0.0000 0.0000 0.0000 0.0000 0.0000 0.0000 0.0000 0.0000 0.0000 -0.279707 -0.158549 0.105132 -0.00381906 -0.106515 -0.115494 -0.0936222 -0.132196 -0.0866875 0.0000 0.0000 0.0000 0.456129 -0.24032 -0.0975851 0.079682 0.210173 0.0652381 0.129884 -0.16404 0.151238 
0.0000 0.0000 0.0000 0.0000 0.0000 0.0000 0.0000 0.0000 0.0000 0.0626666 0.0624639 0.175882 0.0506437 0.0277318 -0.0603368 -0.119478 -0.188795 -0.130852 0.0000 0.0000 0.0000 0.0000 0.0000 0.0000 0.0152714 -0.0447139 0.0946539 0.0320935 0.0639681 0.0913386 -0.0432798 -0.000141237 -0.201535 0.0000 0.0000 0.0000 0.0000 0.0000 0.0000 0.0000 0.0000 0.0000 0.0000 0.0000 0.0000 0.0000 0.0000 0.0000 0.0000 0.0000 0.0000 0.0000 0.0000 0.0000 0.0000 0.0000 0.0000 0.0000 0.0000 0.0000 -0.306587 -0.167352 0.127582 0.0132891 -0.117315 -0.109157 -0.113896 -0.142615 -0.0817895 0.0000 0.0000 0.0000 0.477529 -0.252694 -0.0441459 0.0761768 0.205885 0.0253694 0.116868 -0.153166 0.140497 
